# xmcd
#
# Track frame offsets: 
#        150
#        15820
#        31077
#        43740
#        60970
#        76771
#        94289
#        110200
#
# Disc length: 1644 seconds
#
# Revision: 0
# Processed by: cddbd v1.5.2PL0 Copyright (c) Steve Scherf et al.
# Submitted via: ExactAudioCopy v1.0b3
#
DISCID=52066a08
DTITLE=Micah Lathrop - Revival
DYEAR=2014
DGENRE=Country
TTITLE0=South of Sanity
TTITLE1=Whiskey and Time
TTITLE2=In the Middle
TTITLE3=Lookin' for Me
TTITLE4=Boys in the Hall
TTITLE5=This One's Gonna Hurt
TTITLE6=Restless
TTITLE7=Sweet Dreams Carolina
EXTD=
EXTT0=
EXTT1=
EXTT2=
EXTT3=
EXTT4=
EXTT5=
EXTT6=
EXTT7=
PLAYORDER=
